<?xml version="1.0" encoding="utf-8"?>
<svg viewBox="8.648 8.005 485 485.456" width="485" height="485.456" xmlns="http://www.w3.org/2000/svg">
  <path d="M 8.648 250.728 C 8.648 183.73 32.326 126.519 79.691 79.116 C 127.056 31.712 184.208 8.005 251.148 8.005 C 318.088 8.005 375.24 31.712 422.605 79.116 C 469.97 126.519 493.648 183.73 493.648 250.728 C 493.648 317.736 469.97 374.936 422.605 422.35 C 375.24 469.754 318.088 493.461 251.148 493.461 C 184.208 493.461 127.056 469.754 79.691 422.35 C 32.326 374.936 8.648 317.736 8.648 250.728 Z M 35.168 250.728 C 35.168 310.15 56.324 361.037 98.635 403.387 C 140.946 445.737 191.784 466.912 251.148 466.912 C 310.512 466.912 361.35 445.737 403.661 403.387 C 445.973 361.037 467.128 310.15 467.128 250.728 C 467.128 191.315 445.973 140.43 403.661 98.079 C 361.35 55.729 310.512 34.554 251.148 34.554 C 191.784 34.554 140.946 55.729 98.635 98.079 C 56.324 140.43 35.168 191.315 35.168 250.728 Z M 103.378 302.885 C 102.108 301.614 102.108 300.353 103.378 299.092 C 105.9 296.56 109.063 295.61 112.846 296.241 C 116.638 296.871 118.85 297.511 119.48 298.142 C 123.894 300.033 128.792 304.301 134.156 310.936 C 139.53 317.581 143.789 322.159 146.95 324.69 C 162.102 337.33 177.574 338.28 193.365 327.533 C 194.626 323.11 196.683 319.317 199.524 316.154 C 202.367 312.993 205.044 310.781 207.575 309.52 C 210.097 308.249 214.521 306.357 220.836 303.826 C 199.99 301.935 183.103 298.297 170.153 292.923 C 157.213 287.549 146.95 280.759 139.365 272.544 C 129.268 261.165 123.108 246.305 120.897 227.972 C 118.685 209.648 120.111 192.897 125.165 177.726 C 128.948 168.239 134.321 159.713 141.267 152.127 C 136.213 136.316 137.163 118.304 144.109 98.079 C 164.313 99.34 182.627 106.295 199.049 118.934 C 230.623 110.718 263.457 110.408 297.563 117.993 C 301.986 114.831 308.776 110.883 317.933 106.14 C 327.089 101.396 338.613 98.71 352.503 98.079 C 355.025 105.034 356.761 113.25 357.712 122.727 C 358.663 132.214 358.188 141.06 356.296 149.276 C 370.817 164.446 378.392 184.681 379.023 209.959 C 379.023 230.184 375.551 246.936 368.605 260.215 C 361.66 273.484 349.351 284.552 331.668 293.399 C 319.669 299.082 303.877 302.565 284.302 303.826 C 293.139 308.249 299.619 312.837 303.722 317.581 C 307.825 322.314 310.512 329.744 311.773 339.862 L 311.773 369.728 L 312.723 398.644 C 314.615 401.805 316.827 404.493 319.349 406.704 C 321.881 408.916 324.092 410.497 325.984 411.448 C 327.875 412.388 328.506 413.814 327.875 415.716 C 327.245 417.607 324.723 418.558 320.299 418.558 C 309.562 418.558 301.035 414.765 294.721 407.18 C 292.829 404.017 291.878 400.225 291.878 395.801 L 291.878 350.289 C 291.878 345.235 290.617 341.598 288.095 339.386 C 285.563 337.175 283.041 335.748 280.51 335.118 L 280.51 394.851 C 280.51 405.598 281.78 412.553 284.302 415.706 C 286.824 418.868 288.406 422.03 289.036 425.192 C 289.667 425.823 289.201 426.298 287.62 426.618 C 286.039 426.928 283.352 426.453 279.569 425.192 C 271.353 423.291 265.669 419.033 262.517 412.388 C 259.354 405.754 257.783 398.644 257.783 391.058 L 257.783 332.276 L 245.464 332.276 L 245.464 391.058 C 245.464 398.644 243.883 405.919 240.73 412.863 C 236.307 421.72 228.101 426.453 216.102 427.094 C 214.201 426.453 213.26 425.823 213.26 425.192 C 213.89 424.562 215.782 421.399 218.944 415.716 C 219.575 414.445 220.36 411.923 221.311 408.13 C 222.262 404.337 222.727 399.905 222.727 394.851 L 222.727 335.118 C 220.205 335.748 217.838 337.175 215.626 339.386 C 213.415 341.598 212.309 345.235 212.309 350.289 L 212.309 395.801 C 212.309 400.225 211.358 404.017 209.467 407.18 C 203.783 414.765 195.256 418.558 183.888 418.558 C 179.475 418.558 176.943 417.607 176.313 415.716 C 175.682 414.445 175.837 413.339 176.788 412.388 C 177.739 411.448 179.154 410.341 181.056 409.071 C 182.947 407.81 184.208 406.859 184.839 406.229 C 187.371 404.337 189.262 401.805 190.523 398.644 C 192.415 396.112 192.89 389.477 191.949 378.729 C 190.998 367.992 190.843 361.037 191.473 357.874 C 175.052 363.559 158.319 360.717 141.267 349.338 C 136.213 344.284 131.159 337.009 126.105 327.533 C 122.322 320.578 114.737 312.362 103.378 302.885 Z" style="fill: rgb(255, 255, 255);" transform="matrix(1, 0, 0, 1, 5.684341886080802e-14, 0)"/>
</svg>