<svg width="150" height="150" viewBox="0 0 150 150" fill="none" xmlns="http://www.w3.org/2000/svg">
<rect width="150" height="150" rx="5" fill="#131515"/>
<path d="M94.658 68.2747H84.5392L88.5608 64.4506L76.3662 41.5055V135L50.0312 84.4945L52.6258 81.989H61.4474L57.815 86.0769L70.0095 108.495V15L97.1229 65.7692L94.658 68.2747Z" fill="white"/>
<path d="M67.0214 53.5064C66.9349 55.924 66.8138 61.2075 67.0214 63.0009L63.3889 59.5723L41.0755 71.7042H67.0214V78.4294H15L64.5565 51.3965L67.0214 53.5064Z" fill="white"/>
<path d="M80.6435 97.1528C80.7339 94.7352 80.8604 89.4517 80.6435 87.6583L84.439 91.0869L107.754 78.955H80.6435V72.2297H135L83.219 99.2627L80.6435 97.1528Z" fill="white"/>
<line y1="-5" x2="13.1364" y2="-5" transform="matrix(-0.696927 -0.717142 0.70565 -0.70856 51.9219 41.0352)" stroke="white" stroke-width="10"/>
<line y1="-5" x2="13.1364" y2="-5" transform="matrix(-0.696927 -0.717142 0.70565 -0.70856 109.523 111.189)" stroke="white" stroke-width="10"/>
<line y1="-5" x2="13.1255" y2="-5" transform="matrix(0.732703 -0.680549 0.668526 0.743689 42.2461 115.713)" stroke="white" stroke-width="10"/>
<line y1="-5" x2="13.1255" y2="-5" transform="matrix(0.732703 -0.680549 0.668526 0.743689 100.625 46.6138)" stroke="white" stroke-width="10"/>
</svg>
