<svg width="410" height="519" viewBox="0 0 410 519" fill="none" xmlns="http://www.w3.org/2000/svg">
<path d="M152.5 185.5L255.929 82.0711C259.834 78.1658 259.834 71.8342 255.929 67.9289L211.071 23.0711C207.166 19.1658 200.834 19.1658 196.929 23.0711L152.071 67.9289C148.166 71.8342 148.166 78.1658 152.071 82.0711L386.429 316.429C390.334 320.334 390.334 326.666 386.429 330.571L335.071 381.929C331.166 385.834 324.834 385.834 320.929 381.929L86.0711 147.071C82.1658 143.166 75.8342 143.166 71.9289 147.071L26.0711 192.929C22.1658 196.834 22.1658 203.166 26.0711 207.071L255.929 436.929C259.834 440.834 259.834 447.166 255.929 451.071L211.071 495.929C207.166 499.834 200.834 499.834 196.929 495.929L152.071 451.071C148.166 447.166 148.166 440.834 152.071 436.929L250 339" stroke="#131515" stroke-width="40"/>
<path d="M264 325L138 199L23.2572 308.1C19.2508 311.909 19.0955 318.246 22.9104 322.248L70.4473 372.103C74.3173 376.162 80.7679 376.245 84.7414 372.288L317.847 140.124C321.787 136.2 328.17 136.244 332.056 140.22L382.604 191.944C386.428 195.856 386.398 202.114 382.538 205.99L264 325Z" stroke="#000000" stroke-width="40"/>
</svg>
